# Rubber duck projectile, generated by scripts/make-cosmetic-art.ps1
v 0.0000 0.7000 0.0000
v 0.0000 0.7000 0.0000
v 0.0000 0.7000 0.0000
v 0.0000 0.7000 0.0000
v 0.0000 0.7000 0.0000
v 0.0000 0.7000 0.0000
v 0.0000 0.7000 0.0000
v 0.0000 0.7000 0.0000
v 0.0000 0.7000 0.0000
v 0.0000 0.7000 0.0000
v 0.0000 0.7000 0.0000
v 0.0000 0.7000 0.0000
v 0.0000 0.7000 0.0000
v 0.0000 0.7000 0.0000
v 0.0000 0.7000 0.0000
v 0.0000 0.7000 0.0000
v 0.2588 0.6761 0.0000
v 0.2391 0.6761 0.1288
v 0.1830 0.6761 0.2379
v 0.0990 0.6761 0.3109
v 0.0000 0.6761 0.3365
v -0.0990 0.6761 0.3109
v -0.1830 0.6761 0.2379
v -0.2391 0.6761 0.1288
v -0.2588 0.6761 0.0000
v -0.2391 0.6761 -0.1288
v -0.1830 0.6761 -0.2379
v -0.0990 0.6761 -0.3109
v 0.0000 0.6761 -0.3365
v 0.0990 0.6761 -0.3109
v 0.1830 0.6761 -0.2379
v 0.2391 0.6761 -0.1288
v 0.5000 0.6062 0.0000
v 0.4619 0.6062 0.2487
v 0.3536 0.6062 0.4596
v 0.1913 0.6062 0.6005
v 0.0000 0.6062 0.6500
v -0.1913 0.6062 0.6005
v -0.3536 0.6062 0.4596
v -0.4619 0.6062 0.2487
v -0.5000 0.6062 0.0000
v -0.4619 0.6062 -0.2487
v -0.3536 0.6062 -0.4596
v -0.1913 0.6062 -0.6005
v 0.0000 0.6062 -0.6500
v 0.1913 0.6062 -0.6005
v 0.3536 0.6062 -0.4596
v 0.4619 0.6062 -0.2487
v 0.7071 0.4950 0.0000
v 0.6533 0.4950 0.3518
v 0.5000 0.4950 0.6500
v 0.2706 0.4950 0.8493
v 0.0000 0.4950 0.9192
v -0.2706 0.4950 0.8493
v -0.5000 0.4950 0.6500
v -0.6533 0.4950 0.3518
v -0.7071 0.4950 0.0000
v -0.6533 0.4950 -0.3518
v -0.5000 0.4950 -0.6500
v -0.2706 0.4950 -0.8493
v 0.0000 0.4950 -0.9192
v 0.2706 0.4950 -0.8493
v 0.5000 0.4950 -0.6500
v 0.6533 0.4950 -0.3518
v 0.8660 0.3500 0.0000
v 0.8001 0.3500 0.4308
v 0.6124 0.3500 0.7961
v 0.3314 0.3500 1.0401
v 0.0000 0.3500 1.1258
v -0.3314 0.3500 1.0401
v -0.6124 0.3500 0.7961
v -0.8001 0.3500 0.4308
v -0.8660 0.3500 0.0000
v -0.8001 0.3500 -0.4308
v -0.6124 0.3500 -0.7961
v -0.3314 0.3500 -1.0401
v 0.0000 0.3500 -1.1258
v 0.3314 0.3500 -1.0401
v 0.6124 0.3500 -0.7961
v 0.8001 0.3500 -0.4308
v 0.9659 0.1812 0.0000
v 0.8924 0.1812 0.4805
v 0.6830 0.1812 0.8879
v 0.3696 0.1812 1.1601
v 0.0000 0.1812 1.2557
v -0.3696 0.1812 1.1601
v -0.6830 0.1812 0.8879
v -0.8924 0.1812 0.4805
v -0.9659 0.1812 0.0000
v -0.8924 0.1812 -0.4805
v -0.6830 0.1812 -0.8879
v -0.3696 0.1812 -1.1601
v 0.0000 0.1812 -1.2557
v 0.3696 0.1812 -1.1601
v 0.6830 0.1812 -0.8879
v 0.8924 0.1812 -0.4805
v 1.0000 0.0000 0.0000
v 0.9239 0.0000 0.4975
v 0.7071 0.0000 0.9192
v 0.3827 0.0000 1.2010
v 0.0000 0.0000 1.3000
v -0.3827 0.0000 1.2010
v -0.7071 0.0000 0.9192
v -0.9239 0.0000 0.4975
v -1.0000 0.0000 0.0000
v -0.9239 0.0000 -0.4975
v -0.7071 0.0000 -0.9192
v -0.3827 0.0000 -1.2010
v 0.0000 0.0000 -1.3000
v 0.3827 0.0000 -1.2010
v 0.7071 0.0000 -0.9192
v 0.9239 0.0000 -0.4975
v 0.9659 -0.1812 0.0000
v 0.8924 -0.1812 0.4805
v 0.6830 -0.1812 0.8879
v 0.3696 -0.1812 1.1601
v 0.0000 -0.1812 1.2557
v -0.3696 -0.1812 1.1601
v -0.6830 -0.1812 0.8879
v -0.8924 -0.1812 0.4805
v -0.9659 -0.1812 0.0000
v -0.8924 -0.1812 -0.4805
v -0.6830 -0.1812 -0.8879
v -0.3696 -0.1812 -1.1601
v 0.0000 -0.1812 -1.2557
v 0.3696 -0.1812 -1.1601
v 0.6830 -0.1812 -0.8879
v 0.8924 -0.1812 -0.4805
v 0.8660 -0.3500 0.0000
v 0.8001 -0.3500 0.4308
v 0.6124 -0.3500 0.7961
v 0.3314 -0.3500 1.0401
v 0.0000 -0.3500 1.1258
v -0.3314 -0.3500 1.0401
v -0.6124 -0.3500 0.7961
v -0.8001 -0.3500 0.4308
v -0.8660 -0.3500 0.0000
v -0.8001 -0.3500 -0.4308
v -0.6124 -0.3500 -0.7961
v -0.3314 -0.3500 -1.0401
v 0.0000 -0.3500 -1.1258
v 0.3314 -0.3500 -1.0401
v 0.6124 -0.3500 -0.7961
v 0.8001 -0.3500 -0.4308
v 0.7071 -0.4950 0.0000
v 0.6533 -0.4950 0.3518
v 0.5000 -0.4950 0.6500
v 0.2706 -0.4950 0.8493
v 0.0000 -0.4950 0.9192
v -0.2706 -0.4950 0.8493
v -0.5000 -0.4950 0.6500
v -0.6533 -0.4950 0.3518
v -0.7071 -0.4950 0.0000
v -0.6533 -0.4950 -0.3518
v -0.5000 -0.4950 -0.6500
v -0.2706 -0.4950 -0.8493
v 0.0000 -0.4950 -0.9192
v 0.2706 -0.4950 -0.8493
v 0.5000 -0.4950 -0.6500
v 0.6533 -0.4950 -0.3518
v 0.5000 -0.6062 0.0000
v 0.4619 -0.6062 0.2487
v 0.3536 -0.6062 0.4596
v 0.1913 -0.6062 0.6005
v 0.0000 -0.6062 0.6500
v -0.1913 -0.6062 0.6005
v -0.3536 -0.6062 0.4596
v -0.4619 -0.6062 0.2487
v -0.5000 -0.6062 0.0000
v -0.4619 -0.6062 -0.2487
v -0.3536 -0.6062 -0.4596
v -0.1913 -0.6062 -0.6005
v 0.0000 -0.6062 -0.6500
v 0.1913 -0.6062 -0.6005
v 0.3536 -0.6062 -0.4596
v 0.4619 -0.6062 -0.2487
v 0.2588 -0.6761 0.0000
v 0.2391 -0.6761 0.1288
v 0.1830 -0.6761 0.2379
v 0.0990 -0.6761 0.3109
v 0.0000 -0.6761 0.3365
v -0.0990 -0.6761 0.3109
v -0.1830 -0.6761 0.2379
v -0.2391 -0.6761 0.1288
v -0.2588 -0.6761 0.0000
v -0.2391 -0.6761 -0.1288
v -0.1830 -0.6761 -0.2379
v -0.0990 -0.6761 -0.3109
v 0.0000 -0.6761 -0.3365
v 0.0990 -0.6761 -0.3109
v 0.1830 -0.6761 -0.2379
v 0.2391 -0.6761 -0.1288
v 0.0000 -0.7000 0.0000
v 0.0000 -0.7000 0.0000
v 0.0000 -0.7000 0.0000
v 0.0000 -0.7000 0.0000
v 0.0000 -0.7000 0.0000
v 0.0000 -0.7000 0.0000
v 0.0000 -0.7000 0.0000
v 0.0000 -0.7000 0.0000
v 0.0000 -0.7000 0.0000
v 0.0000 -0.7000 0.0000
v 0.0000 -0.7000 0.0000
v 0.0000 -0.7000 0.0000
v 0.0000 -0.7000 0.0000
v 0.0000 -0.7000 0.0000
v 0.0000 -0.7000 0.0000
v 0.0000 -0.7000 0.0000
f 1 2 18 17
f 2 3 19 18
f 3 4 20 19
f 4 5 21 20
f 5 6 22 21
f 6 7 23 22
f 7 8 24 23
f 8 9 25 24
f 9 10 26 25
f 10 11 27 26
f 11 12 28 27
f 12 13 29 28
f 13 14 30 29
f 14 15 31 30
f 15 16 32 31
f 16 1 17 32
f 17 18 34 33
f 18 19 35 34
f 19 20 36 35
f 20 21 37 36
f 21 22 38 37
f 22 23 39 38
f 23 24 40 39
f 24 25 41 40
f 25 26 42 41
f 26 27 43 42
f 27 28 44 43
f 28 29 45 44
f 29 30 46 45
f 30 31 47 46
f 31 32 48 47
f 32 17 33 48
f 33 34 50 49
f 34 35 51 50
f 35 36 52 51
f 36 37 53 52
f 37 38 54 53
f 38 39 55 54
f 39 40 56 55
f 40 41 57 56
f 41 42 58 57
f 42 43 59 58
f 43 44 60 59
f 44 45 61 60
f 45 46 62 61
f 46 47 63 62
f 47 48 64 63
f 48 33 49 64
f 49 50 66 65
f 50 51 67 66
f 51 52 68 67
f 52 53 69 68
f 53 54 70 69
f 54 55 71 70
f 55 56 72 71
f 56 57 73 72
f 57 58 74 73
f 58 59 75 74
f 59 60 76 75
f 60 61 77 76
f 61 62 78 77
f 62 63 79 78
f 63 64 80 79
f 64 49 65 80
f 65 66 82 81
f 66 67 83 82
f 67 68 84 83
f 68 69 85 84
f 69 70 86 85
f 70 71 87 86
f 71 72 88 87
f 72 73 89 88
f 73 74 90 89
f 74 75 91 90
f 75 76 92 91
f 76 77 93 92
f 77 78 94 93
f 78 79 95 94
f 79 80 96 95
f 80 65 81 96
f 81 82 98 97
f 82 83 99 98
f 83 84 100 99
f 84 85 101 100
f 85 86 102 101
f 86 87 103 102
f 87 88 104 103
f 88 89 105 104
f 89 90 106 105
f 90 91 107 106
f 91 92 108 107
f 92 93 109 108
f 93 94 110 109
f 94 95 111 110
f 95 96 112 111
f 96 81 97 112
f 97 98 114 113
f 98 99 115 114
f 99 100 116 115
f 100 101 117 116
f 101 102 118 117
f 102 103 119 118
f 103 104 120 119
f 104 105 121 120
f 105 106 122 121
f 106 107 123 122
f 107 108 124 123
f 108 109 125 124
f 109 110 126 125
f 110 111 127 126
f 111 112 128 127
f 112 97 113 128
f 113 114 130 129
f 114 115 131 130
f 115 116 132 131
f 116 117 133 132
f 117 118 134 133
f 118 119 135 134
f 119 120 136 135
f 120 121 137 136
f 121 122 138 137
f 122 123 139 138
f 123 124 140 139
f 124 125 141 140
f 125 126 142 141
f 126 127 143 142
f 127 128 144 143
f 128 113 129 144
f 129 130 146 145
f 130 131 147 146
f 131 132 148 147
f 132 133 149 148
f 133 134 150 149
f 134 135 151 150
f 135 136 152 151
f 136 137 153 152
f 137 138 154 153
f 138 139 155 154
f 139 140 156 155
f 140 141 157 156
f 141 142 158 157
f 142 143 159 158
f 143 144 160 159
f 144 129 145 160
f 145 146 162 161
f 146 147 163 162
f 147 148 164 163
f 148 149 165 164
f 149 150 166 165
f 150 151 167 166
f 151 152 168 167
f 152 153 169 168
f 153 154 170 169
f 154 155 171 170
f 155 156 172 171
f 156 157 173 172
f 157 158 174 173
f 158 159 175 174
f 159 160 176 175
f 160 145 161 176
f 161 162 178 177
f 162 163 179 178
f 163 164 180 179
f 164 165 181 180
f 165 166 182 181
f 166 167 183 182
f 167 168 184 183
f 168 169 185 184
f 169 170 186 185
f 170 171 187 186
f 171 172 188 187
f 172 173 189 188
f 173 174 190 189
f 174 175 191 190
f 175 176 192 191
f 176 161 177 192
f 177 178 194 193
f 178 179 195 194
f 179 180 196 195
f 180 181 197 196
f 181 182 198 197
f 182 183 199 198
f 183 184 200 199
f 184 185 201 200
f 185 186 202 201
f 186 187 203 202
f 187 188 204 203
f 188 189 205 204
f 189 190 206 205
f 190 191 207 206
f 191 192 208 207
f 192 177 193 208
v 0.0000 1.4500 -0.7500
v 0.0000 1.4500 -0.7500
v 0.0000 1.4500 -0.7500
v 0.0000 1.4500 -0.7500
v 0.0000 1.4500 -0.7500
v 0.0000 1.4500 -0.7500
v 0.0000 1.4500 -0.7500
v 0.0000 1.4500 -0.7500
v 0.0000 1.4500 -0.7500
v 0.0000 1.4500 -0.7500
v 0.0000 1.4500 -0.7500
v 0.0000 1.4500 -0.7500
v 0.0000 1.4500 -0.7500
v 0.0000 1.4500 -0.7500
v 0.0000 1.4500 -0.7500
v 0.0000 1.4500 -0.7500
v 0.1424 1.4313 -0.7500
v 0.1315 1.4313 -0.6955
v 0.1007 1.4313 -0.6493
v 0.0545 1.4313 -0.6185
v 0.0000 1.4313 -0.6076
v -0.0545 1.4313 -0.6185
v -0.1007 1.4313 -0.6493
v -0.1315 1.4313 -0.6955
v -0.1424 1.4313 -0.7500
v -0.1315 1.4313 -0.8045
v -0.1007 1.4313 -0.8507
v -0.0545 1.4313 -0.8815
v 0.0000 1.4313 -0.8924
v 0.0545 1.4313 -0.8815
v 0.1007 1.4313 -0.8507
v 0.1315 1.4313 -0.8045
v 0.2750 1.3763 -0.7500
v 0.2541 1.3763 -0.6448
v 0.1945 1.3763 -0.5555
v 0.1052 1.3763 -0.4959
v 0.0000 1.3763 -0.4750
v -0.1052 1.3763 -0.4959
v -0.1945 1.3763 -0.5555
v -0.2541 1.3763 -0.6448
v -0.2750 1.3763 -0.7500
v -0.2541 1.3763 -0.8552
v -0.1945 1.3763 -0.9445
v -0.1052 1.3763 -1.0041
v 0.0000 1.3763 -1.0250
v 0.1052 1.3763 -1.0041
v 0.1945 1.3763 -0.9445
v 0.2541 1.3763 -0.8552
v 0.3889 1.2889 -0.7500
v 0.3593 1.2889 -0.6012
v 0.2750 1.2889 -0.4750
v 0.1488 1.2889 -0.3907
v 0.0000 1.2889 -0.3611
v -0.1488 1.2889 -0.3907
v -0.2750 1.2889 -0.4750
v -0.3593 1.2889 -0.6012
v -0.3889 1.2889 -0.7500
v -0.3593 1.2889 -0.8988
v -0.2750 1.2889 -1.0250
v -0.1488 1.2889 -1.1093
v 0.0000 1.2889 -1.1389
v 0.1488 1.2889 -1.1093
v 0.2750 1.2889 -1.0250
v 0.3593 1.2889 -0.8988
v 0.4763 1.1750 -0.7500
v 0.4401 1.1750 -0.5677
v 0.3368 1.1750 -0.4132
v 0.1823 1.1750 -0.3099
v 0.0000 1.1750 -0.2737
v -0.1823 1.1750 -0.3099
v -0.3368 1.1750 -0.4132
v -0.4401 1.1750 -0.5677
v -0.4763 1.1750 -0.7500
v -0.4401 1.1750 -0.9323
v -0.3368 1.1750 -1.0868
v -0.1823 1.1750 -1.1901
v 0.0000 1.1750 -1.2263
v 0.1823 1.1750 -1.1901
v 0.3368 1.1750 -1.0868
v 0.4401 1.1750 -0.9323
v 0.5313 1.0424 -0.7500
v 0.4908 1.0424 -0.5467
v 0.3757 1.0424 -0.3743
v 0.2033 1.0424 -0.2592
v 0.0000 1.0424 -0.2187
v -0.2033 1.0424 -0.2592
v -0.3757 1.0424 -0.3743
v -0.4908 1.0424 -0.5467
v -0.5313 1.0424 -0.7500
v -0.4908 1.0424 -0.9533
v -0.3757 1.0424 -1.1257
v -0.2033 1.0424 -1.2408
v 0.0000 1.0424 -1.2813
v 0.2033 1.0424 -1.2408
v 0.3757 1.0424 -1.1257
v 0.4908 1.0424 -0.9533
v 0.5500 0.9000 -0.7500
v 0.5081 0.9000 -0.5395
v 0.3889 0.9000 -0.3611
v 0.2105 0.9000 -0.2419
v 0.0000 0.9000 -0.2000
v -0.2105 0.9000 -0.2419
v -0.3889 0.9000 -0.3611
v -0.5081 0.9000 -0.5395
v -0.5500 0.9000 -0.7500
v -0.5081 0.9000 -0.9605
v -0.3889 0.9000 -1.1389
v -0.2105 0.9000 -1.2581
v 0.0000 0.9000 -1.3000
v 0.2105 0.9000 -1.2581
v 0.3889 0.9000 -1.1389
v 0.5081 0.9000 -0.9605
v 0.5313 0.7576 -0.7500
v 0.4908 0.7576 -0.5467
v 0.3757 0.7576 -0.3743
v 0.2033 0.7576 -0.2592
v 0.0000 0.7576 -0.2187
v -0.2033 0.7576 -0.2592
v -0.3757 0.7576 -0.3743
v -0.4908 0.7576 -0.5467
v -0.5313 0.7576 -0.7500
v -0.4908 0.7576 -0.9533
v -0.3757 0.7576 -1.1257
v -0.2033 0.7576 -1.2408
v 0.0000 0.7576 -1.2813
v 0.2033 0.7576 -1.2408
v 0.3757 0.7576 -1.1257
v 0.4908 0.7576 -0.9533
v 0.4763 0.6250 -0.7500
v 0.4401 0.6250 -0.5677
v 0.3368 0.6250 -0.4132
v 0.1823 0.6250 -0.3099
v 0.0000 0.6250 -0.2737
v -0.1823 0.6250 -0.3099
v -0.3368 0.6250 -0.4132
v -0.4401 0.6250 -0.5677
v -0.4763 0.6250 -0.7500
v -0.4401 0.6250 -0.9323
v -0.3368 0.6250 -1.0868
v -0.1823 0.6250 -1.1901
v 0.0000 0.6250 -1.2263
v 0.1823 0.6250 -1.1901
v 0.3368 0.6250 -1.0868
v 0.4401 0.6250 -0.9323
v 0.3889 0.5111 -0.7500
v 0.3593 0.5111 -0.6012
v 0.2750 0.5111 -0.4750
v 0.1488 0.5111 -0.3907
v 0.0000 0.5111 -0.3611
v -0.1488 0.5111 -0.3907
v -0.2750 0.5111 -0.4750
v -0.3593 0.5111 -0.6012
v -0.3889 0.5111 -0.7500
v -0.3593 0.5111 -0.8988
v -0.2750 0.5111 -1.0250
v -0.1488 0.5111 -1.1093
v 0.0000 0.5111 -1.1389
v 0.1488 0.5111 -1.1093
v 0.2750 0.5111 -1.0250
v 0.3593 0.5111 -0.8988
v 0.2750 0.4237 -0.7500
v 0.2541 0.4237 -0.6448
v 0.1945 0.4237 -0.5555
v 0.1052 0.4237 -0.4959
v 0.0000 0.4237 -0.4750
v -0.1052 0.4237 -0.4959
v -0.1945 0.4237 -0.5555
v -0.2541 0.4237 -0.6448
v -0.2750 0.4237 -0.7500
v -0.2541 0.4237 -0.8552
v -0.1945 0.4237 -0.9445
v -0.1052 0.4237 -1.0041
v 0.0000 0.4237 -1.0250
v 0.1052 0.4237 -1.0041
v 0.1945 0.4237 -0.9445
v 0.2541 0.4237 -0.8552
v 0.1424 0.3687 -0.7500
v 0.1315 0.3687 -0.6955
v 0.1007 0.3687 -0.6493
v 0.0545 0.3687 -0.6185
v 0.0000 0.3687 -0.6076
v -0.0545 0.3687 -0.6185
v -0.1007 0.3687 -0.6493
v -0.1315 0.3687 -0.6955
v -0.1424 0.3687 -0.7500
v -0.1315 0.3687 -0.8045
v -0.1007 0.3687 -0.8507
v -0.0545 0.3687 -0.8815
v 0.0000 0.3687 -0.8924
v 0.0545 0.3687 -0.8815
v 0.1007 0.3687 -0.8507
v 0.1315 0.3687 -0.8045
v 0.0000 0.3500 -0.7500
v 0.0000 0.3500 -0.7500
v 0.0000 0.3500 -0.7500
v 0.0000 0.3500 -0.7500
v 0.0000 0.3500 -0.7500
v 0.0000 0.3500 -0.7500
v 0.0000 0.3500 -0.7500
v 0.0000 0.3500 -0.7500
v 0.0000 0.3500 -0.7500
v 0.0000 0.3500 -0.7500
v 0.0000 0.3500 -0.7500
v 0.0000 0.3500 -0.7500
v 0.0000 0.3500 -0.7500
v 0.0000 0.3500 -0.7500
v 0.0000 0.3500 -0.7500
v 0.0000 0.3500 -0.7500
f 209 210 226 225
f 210 211 227 226
f 211 212 228 227
f 212 213 229 228
f 213 214 230 229
f 214 215 231 230
f 215 216 232 231
f 216 217 233 232
f 217 218 234 233
f 218 219 235 234
f 219 220 236 235
f 220 221 237 236
f 221 222 238 237
f 222 223 239 238
f 223 224 240 239
f 224 209 225 240
f 225 226 242 241
f 226 227 243 242
f 227 228 244 243
f 228 229 245 244
f 229 230 246 245
f 230 231 247 246
f 231 232 248 247
f 232 233 249 248
f 233 234 250 249
f 234 235 251 250
f 235 236 252 251
f 236 237 253 252
f 237 238 254 253
f 238 239 255 254
f 239 240 256 255
f 240 225 241 256
f 241 242 258 257
f 242 243 259 258
f 243 244 260 259
f 244 245 261 260
f 245 246 262 261
f 246 247 263 262
f 247 248 264 263
f 248 249 265 264
f 249 250 266 265
f 250 251 267 266
f 251 252 268 267
f 252 253 269 268
f 253 254 270 269
f 254 255 271 270
f 255 256 272 271
f 256 241 257 272
f 257 258 274 273
f 258 259 275 274
f 259 260 276 275
f 260 261 277 276
f 261 262 278 277
f 262 263 279 278
f 263 264 280 279
f 264 265 281 280
f 265 266 282 281
f 266 267 283 282
f 267 268 284 283
f 268 269 285 284
f 269 270 286 285
f 270 271 287 286
f 271 272 288 287
f 272 257 273 288
f 273 274 290 289
f 274 275 291 290
f 275 276 292 291
f 276 277 293 292
f 277 278 294 293
f 278 279 295 294
f 279 280 296 295
f 280 281 297 296
f 281 282 298 297
f 282 283 299 298
f 283 284 300 299
f 284 285 301 300
f 285 286 302 301
f 286 287 303 302
f 287 288 304 303
f 288 273 289 304
f 289 290 306 305
f 290 291 307 306
f 291 292 308 307
f 292 293 309 308
f 293 294 310 309
f 294 295 311 310
f 295 296 312 311
f 296 297 313 312
f 297 298 314 313
f 298 299 315 314
f 299 300 316 315
f 300 301 317 316
f 301 302 318 317
f 302 303 319 318
f 303 304 320 319
f 304 289 305 320
f 305 306 322 321
f 306 307 323 322
f 307 308 324 323
f 308 309 325 324
f 309 310 326 325
f 310 311 327 326
f 311 312 328 327
f 312 313 329 328
f 313 314 330 329
f 314 315 331 330
f 315 316 332 331
f 316 317 333 332
f 317 318 334 333
f 318 319 335 334
f 319 320 336 335
f 320 305 321 336
f 321 322 338 337
f 322 323 339 338
f 323 324 340 339
f 324 325 341 340
f 325 326 342 341
f 326 327 343 342
f 327 328 344 343
f 328 329 345 344
f 329 330 346 345
f 330 331 347 346
f 331 332 348 347
f 332 333 349 348
f 333 334 350 349
f 334 335 351 350
f 335 336 352 351
f 336 321 337 352
f 337 338 354 353
f 338 339 355 354
f 339 340 356 355
f 340 341 357 356
f 341 342 358 357
f 342 343 359 358
f 343 344 360 359
f 344 345 361 360
f 345 346 362 361
f 346 347 363 362
f 347 348 364 363
f 348 349 365 364
f 349 350 366 365
f 350 351 367 366
f 351 352 368 367
f 352 337 353 368
f 353 354 370 369
f 354 355 371 370
f 355 356 372 371
f 356 357 373 372
f 357 358 374 373
f 358 359 375 374
f 359 360 376 375
f 360 361 377 376
f 361 362 378 377
f 362 363 379 378
f 363 364 380 379
f 364 365 381 380
f 365 366 382 381
f 366 367 383 382
f 367 368 384 383
f 368 353 369 384
f 369 370 386 385
f 370 371 387 386
f 371 372 388 387
f 372 373 389 388
f 373 374 390 389
f 374 375 391 390
f 375 376 392 391
f 376 377 393 392
f 377 378 394 393
f 378 379 395 394
f 379 380 396 395
f 380 381 397 396
f 381 382 398 397
f 382 383 399 398
f 383 384 400 399
f 384 369 385 400
f 385 386 402 401
f 386 387 403 402
f 387 388 404 403
f 388 389 405 404
f 389 390 406 405
f 390 391 407 406
f 391 392 408 407
f 392 393 409 408
f 393 394 410 409
f 394 395 411 410
f 395 396 412 411
f 396 397 413 412
f 397 398 414 413
f 398 399 415 414
f 399 400 416 415
f 400 385 401 416
v 0.0000 0.9200 -1.3000
v 0.0000 0.9200 -1.3000
v 0.0000 0.9200 -1.3000
v 0.0000 0.9200 -1.3000
v 0.0000 0.9200 -1.3000
v 0.0000 0.9200 -1.3000
v 0.0000 0.9200 -1.3000
v 0.0000 0.9200 -1.3000
v 0.0000 0.9200 -1.3000
v 0.0000 0.9200 -1.3000
v 0.0000 0.9200 -1.3000
v 0.0000 0.9200 -1.3000
v 0.0000 0.9200 -1.3000
v 0.0000 0.9200 -1.3000
v 0.0000 0.9200 -1.3000
v 0.0000 0.9200 -1.3000
v 0.0776 0.9166 -1.3000
v 0.0717 0.9166 -1.2723
v 0.0549 0.9166 -1.2488
v 0.0297 0.9166 -1.2330
v 0.0000 0.9166 -1.2275
v -0.0297 0.9166 -1.2330
v -0.0549 0.9166 -1.2488
v -0.0717 0.9166 -1.2723
v -0.0776 0.9166 -1.3000
v -0.0717 0.9166 -1.3277
v -0.0549 0.9166 -1.3512
v -0.0297 0.9166 -1.3670
v 0.0000 0.9166 -1.3725
v 0.0297 0.9166 -1.3670
v 0.0549 0.9166 -1.3512
v 0.0717 0.9166 -1.3277
v 0.1500 0.9066 -1.3000
v 0.1386 0.9066 -1.2464
v 0.1061 0.9066 -1.2010
v 0.0574 0.9066 -1.1707
v 0.0000 0.9066 -1.1600
v -0.0574 0.9066 -1.1707
v -0.1061 0.9066 -1.2010
v -0.1386 0.9066 -1.2464
v -0.1500 0.9066 -1.3000
v -0.1386 0.9066 -1.3536
v -0.1061 0.9066 -1.3990
v -0.0574 0.9066 -1.4293
v 0.0000 0.9066 -1.4400
v 0.0574 0.9066 -1.4293
v 0.1061 0.9066 -1.3990
v 0.1386 0.9066 -1.3536
v 0.2121 0.8907 -1.3000
v 0.1960 0.8907 -1.2242
v 0.1500 0.8907 -1.1600
v 0.0812 0.8907 -1.1171
v 0.0000 0.8907 -1.1020
v -0.0812 0.8907 -1.1171
v -0.1500 0.8907 -1.1600
v -0.1960 0.8907 -1.2242
v -0.2121 0.8907 -1.3000
v -0.1960 0.8907 -1.3758
v -0.1500 0.8907 -1.4400
v -0.0812 0.8907 -1.4829
v 0.0000 0.8907 -1.4980
v 0.0812 0.8907 -1.4829
v 0.1500 0.8907 -1.4400
v 0.1960 0.8907 -1.3758
v 0.2598 0.8700 -1.3000
v 0.2400 0.8700 -1.2072
v 0.1837 0.8700 -1.1285
v 0.0994 0.8700 -1.0760
v 0.0000 0.8700 -1.0575
v -0.0994 0.8700 -1.0760
v -0.1837 0.8700 -1.1285
v -0.2400 0.8700 -1.2072
v -0.2598 0.8700 -1.3000
v -0.2400 0.8700 -1.3928
v -0.1837 0.8700 -1.4715
v -0.0994 0.8700 -1.5240
v 0.0000 0.8700 -1.5425
v 0.0994 0.8700 -1.5240
v 0.1837 0.8700 -1.4715
v 0.2400 0.8700 -1.3928
v 0.2898 0.8459 -1.3000
v 0.2677 0.8459 -1.1965
v 0.2049 0.8459 -1.1088
v 0.1109 0.8459 -1.0501
v 0.0000 0.8459 -1.0295
v -0.1109 0.8459 -1.0501
v -0.2049 0.8459 -1.1088
v -0.2677 0.8459 -1.1965
v -0.2898 0.8459 -1.3000
v -0.2677 0.8459 -1.4035
v -0.2049 0.8459 -1.4912
v -0.1109 0.8459 -1.5499
v 0.0000 0.8459 -1.5705
v 0.1109 0.8459 -1.5499
v 0.2049 0.8459 -1.4912
v 0.2677 0.8459 -1.4035
v 0.3000 0.8200 -1.3000
v 0.2772 0.8200 -1.1928
v 0.2121 0.8200 -1.1020
v 0.1148 0.8200 -1.0413
v 0.0000 0.8200 -1.0200
v -0.1148 0.8200 -1.0413
v -0.2121 0.8200 -1.1020
v -0.2772 0.8200 -1.1928
v -0.3000 0.8200 -1.3000
v -0.2772 0.8200 -1.4072
v -0.2121 0.8200 -1.4980
v -0.1148 0.8200 -1.5587
v 0.0000 0.8200 -1.5800
v 0.1148 0.8200 -1.5587
v 0.2121 0.8200 -1.4980
v 0.2772 0.8200 -1.4072
v 0.2898 0.7941 -1.3000
v 0.2677 0.7941 -1.1965
v 0.2049 0.7941 -1.1088
v 0.1109 0.7941 -1.0501
v 0.0000 0.7941 -1.0295
v -0.1109 0.7941 -1.0501
v -0.2049 0.7941 -1.1088
v -0.2677 0.7941 -1.1965
v -0.2898 0.7941 -1.3000
v -0.2677 0.7941 -1.4035
v -0.2049 0.7941 -1.4912
v -0.1109 0.7941 -1.5499
v 0.0000 0.7941 -1.5705
v 0.1109 0.7941 -1.5499
v 0.2049 0.7941 -1.4912
v 0.2677 0.7941 -1.4035
v 0.2598 0.7700 -1.3000
v 0.2400 0.7700 -1.2072
v 0.1837 0.7700 -1.1285
v 0.0994 0.7700 -1.0760
v 0.0000 0.7700 -1.0575
v -0.0994 0.7700 -1.0760
v -0.1837 0.7700 -1.1285
v -0.2400 0.7700 -1.2072
v -0.2598 0.7700 -1.3000
v -0.2400 0.7700 -1.3928
v -0.1837 0.7700 -1.4715
v -0.0994 0.7700 -1.5240
v 0.0000 0.7700 -1.5425
v 0.0994 0.7700 -1.5240
v 0.1837 0.7700 -1.4715
v 0.2400 0.7700 -1.3928
v 0.2121 0.7493 -1.3000
v 0.1960 0.7493 -1.2242
v 0.1500 0.7493 -1.1600
v 0.0812 0.7493 -1.1171
v 0.0000 0.7493 -1.1020
v -0.0812 0.7493 -1.1171
v -0.1500 0.7493 -1.1600
v -0.1960 0.7493 -1.2242
v -0.2121 0.7493 -1.3000
v -0.1960 0.7493 -1.3758
v -0.1500 0.7493 -1.4400
v -0.0812 0.7493 -1.4829
v 0.0000 0.7493 -1.4980
v 0.0812 0.7493 -1.4829
v 0.1500 0.7493 -1.4400
v 0.1960 0.7493 -1.3758
v 0.1500 0.7334 -1.3000
v 0.1386 0.7334 -1.2464
v 0.1061 0.7334 -1.2010
v 0.0574 0.7334 -1.1707
v 0.0000 0.7334 -1.1600
v -0.0574 0.7334 -1.1707
v -0.1061 0.7334 -1.2010
v -0.1386 0.7334 -1.2464
v -0.1500 0.7334 -1.3000
v -0.1386 0.7334 -1.3536
v -0.1061 0.7334 -1.3990
v -0.0574 0.7334 -1.4293
v 0.0000 0.7334 -1.4400
v 0.0574 0.7334 -1.4293
v 0.1061 0.7334 -1.3990
v 0.1386 0.7334 -1.3536
v 0.0776 0.7234 -1.3000
v 0.0717 0.7234 -1.2723
v 0.0549 0.7234 -1.2488
v 0.0297 0.7234 -1.2330
v 0.0000 0.7234 -1.2275
v -0.0297 0.7234 -1.2330
v -0.0549 0.7234 -1.2488
v -0.0717 0.7234 -1.2723
v -0.0776 0.7234 -1.3000
v -0.0717 0.7234 -1.3277
v -0.0549 0.7234 -1.3512
v -0.0297 0.7234 -1.3670
v 0.0000 0.7234 -1.3725
v 0.0297 0.7234 -1.3670
v 0.0549 0.7234 -1.3512
v 0.0717 0.7234 -1.3277
v 0.0000 0.7200 -1.3000
v 0.0000 0.7200 -1.3000
v 0.0000 0.7200 -1.3000
v 0.0000 0.7200 -1.3000
v 0.0000 0.7200 -1.3000
v 0.0000 0.7200 -1.3000
v 0.0000 0.7200 -1.3000
v 0.0000 0.7200 -1.3000
v 0.0000 0.7200 -1.3000
v 0.0000 0.7200 -1.3000
v 0.0000 0.7200 -1.3000
v 0.0000 0.7200 -1.3000
v 0.0000 0.7200 -1.3000
v 0.0000 0.7200 -1.3000
v 0.0000 0.7200 -1.3000
v 0.0000 0.7200 -1.3000
f 417 418 434 433
f 418 419 435 434
f 419 420 436 435
f 420 421 437 436
f 421 422 438 437
f 422 423 439 438
f 423 424 440 439
f 424 425 441 440
f 425 426 442 441
f 426 427 443 442
f 427 428 444 443
f 428 429 445 444
f 429 430 446 445
f 430 431 447 446
f 431 432 448 447
f 432 417 433 448
f 433 434 450 449
f 434 435 451 450
f 435 436 452 451
f 436 437 453 452
f 437 438 454 453
f 438 439 455 454
f 439 440 456 455
f 440 441 457 456
f 441 442 458 457
f 442 443 459 458
f 443 444 460 459
f 444 445 461 460
f 445 446 462 461
f 446 447 463 462
f 447 448 464 463
f 448 433 449 464
f 449 450 466 465
f 450 451 467 466
f 451 452 468 467
f 452 453 469 468
f 453 454 470 469
f 454 455 471 470
f 455 456 472 471
f 456 457 473 472
f 457 458 474 473
f 458 459 475 474
f 459 460 476 475
f 460 461 477 476
f 461 462 478 477
f 462 463 479 478
f 463 464 480 479
f 464 449 465 480
f 465 466 482 481
f 466 467 483 482
f 467 468 484 483
f 468 469 485 484
f 469 470 486 485
f 470 471 487 486
f 471 472 488 487
f 472 473 489 488
f 473 474 490 489
f 474 475 491 490
f 475 476 492 491
f 476 477 493 492
f 477 478 494 493
f 478 479 495 494
f 479 480 496 495
f 480 465 481 496
f 481 482 498 497
f 482 483 499 498
f 483 484 500 499
f 484 485 501 500
f 485 486 502 501
f 486 487 503 502
f 487 488 504 503
f 488 489 505 504
f 489 490 506 505
f 490 491 507 506
f 491 492 508 507
f 492 493 509 508
f 493 494 510 509
f 494 495 511 510
f 495 496 512 511
f 496 481 497 512
f 497 498 514 513
f 498 499 515 514
f 499 500 516 515
f 500 501 517 516
f 501 502 518 517
f 502 503 519 518
f 503 504 520 519
f 504 505 521 520
f 505 506 522 521
f 506 507 523 522
f 507 508 524 523
f 508 509 525 524
f 509 510 526 525
f 510 511 527 526
f 511 512 528 527
f 512 497 513 528
f 513 514 530 529
f 514 515 531 530
f 515 516 532 531
f 516 517 533 532
f 517 518 534 533
f 518 519 535 534
f 519 520 536 535
f 520 521 537 536
f 521 522 538 537
f 522 523 539 538
f 523 524 540 539
f 524 525 541 540
f 525 526 542 541
f 526 527 543 542
f 527 528 544 543
f 528 513 529 544
f 529 530 546 545
f 530 531 547 546
f 531 532 548 547
f 532 533 549 548
f 533 534 550 549
f 534 535 551 550
f 535 536 552 551
f 536 537 553 552
f 537 538 554 553
f 538 539 555 554
f 539 540 556 555
f 540 541 557 556
f 541 542 558 557
f 542 543 559 558
f 543 544 560 559
f 544 529 545 560
f 545 546 562 561
f 546 547 563 562
f 547 548 564 563
f 548 549 565 564
f 549 550 566 565
f 550 551 567 566
f 551 552 568 567
f 552 553 569 568
f 553 554 570 569
f 554 555 571 570
f 555 556 572 571
f 556 557 573 572
f 557 558 574 573
f 558 559 575 574
f 559 560 576 575
f 560 545 561 576
f 561 562 578 577
f 562 563 579 578
f 563 564 580 579
f 564 565 581 580
f 565 566 582 581
f 566 567 583 582
f 567 568 584 583
f 568 569 585 584
f 569 570 586 585
f 570 571 587 586
f 571 572 588 587
f 572 573 589 588
f 573 574 590 589
f 574 575 591 590
f 575 576 592 591
f 576 561 577 592
f 577 578 594 593
f 578 579 595 594
f 579 580 596 595
f 580 581 597 596
f 581 582 598 597
f 582 583 599 598
f 583 584 600 599
f 584 585 601 600
f 585 586 602 601
f 586 587 603 602
f 587 588 604 603
f 588 589 605 604
f 589 590 606 605
f 590 591 607 606
f 591 592 608 607
f 592 577 593 608
f 593 594 610 609
f 594 595 611 610
f 595 596 612 611
f 596 597 613 612
f 597 598 614 613
f 598 599 615 614
f 599 600 616 615
f 600 601 617 616
f 601 602 618 617
f 602 603 619 618
f 603 604 620 619
f 604 605 621 620
f 605 606 622 621
f 606 607 623 622
f 607 608 624 623
f 608 593 609 624
v 0.0000 0.7000 1.1500
v 0.0000 0.7000 1.1500
v 0.0000 0.7000 1.1500
v 0.0000 0.7000 1.1500
v 0.0000 0.7000 1.1500
v 0.0000 0.7000 1.1500
v 0.0000 0.7000 1.1500
v 0.0000 0.7000 1.1500
v 0.0000 0.7000 1.1500
v 0.0000 0.7000 1.1500
v 0.0000 0.7000 1.1500
v 0.0000 0.7000 1.1500
v 0.0000 0.7000 1.1500
v 0.0000 0.7000 1.1500
v 0.0000 0.7000 1.1500
v 0.0000 0.7000 1.1500
v 0.1035 0.6898 1.1500
v 0.0956 0.6898 1.1797
v 0.0732 0.6898 1.2049
v 0.0396 0.6898 1.2217
v 0.0000 0.6898 1.2276
v -0.0396 0.6898 1.2217
v -0.0732 0.6898 1.2049
v -0.0956 0.6898 1.1797
v -0.1035 0.6898 1.1500
v -0.0956 0.6898 1.1203
v -0.0732 0.6898 1.0951
v -0.0396 0.6898 1.0783
v 0.0000 0.6898 1.0724
v 0.0396 0.6898 1.0783
v 0.0732 0.6898 1.0951
v 0.0956 0.6898 1.1203
v 0.2000 0.6598 1.1500
v 0.1848 0.6598 1.2074
v 0.1414 0.6598 1.2561
v 0.0765 0.6598 1.2886
v 0.0000 0.6598 1.3000
v -0.0765 0.6598 1.2886
v -0.1414 0.6598 1.2561
v -0.1848 0.6598 1.2074
v -0.2000 0.6598 1.1500
v -0.1848 0.6598 1.0926
v -0.1414 0.6598 1.0439
v -0.0765 0.6598 1.0114
v 0.0000 0.6598 1.0000
v 0.0765 0.6598 1.0114
v 0.1414 0.6598 1.0439
v 0.1848 0.6598 1.0926
v 0.2828 0.6121 1.1500
v 0.2613 0.6121 1.2312
v 0.2000 0.6121 1.3000
v 0.1082 0.6121 1.3460
v 0.0000 0.6121 1.3621
v -0.1082 0.6121 1.3460
v -0.2000 0.6121 1.3000
v -0.2613 0.6121 1.2312
v -0.2828 0.6121 1.1500
v -0.2613 0.6121 1.0688
v -0.2000 0.6121 1.0000
v -0.1082 0.6121 0.9540
v 0.0000 0.6121 0.9379
v 0.1082 0.6121 0.9540
v 0.2000 0.6121 1.0000
v 0.2613 0.6121 1.0688
v 0.3464 0.5500 1.1500
v 0.3200 0.5500 1.2494
v 0.2449 0.5500 1.3337
v 0.1326 0.5500 1.3900
v 0.0000 0.5500 1.4098
v -0.1326 0.5500 1.3900
v -0.2449 0.5500 1.3337
v -0.3200 0.5500 1.2494
v -0.3464 0.5500 1.1500
v -0.3200 0.5500 1.0506
v -0.2449 0.5500 0.9663
v -0.1326 0.5500 0.9100
v 0.0000 0.5500 0.8902
v 0.1326 0.5500 0.9100
v 0.2449 0.5500 0.9663
v 0.3200 0.5500 1.0506
v 0.3864 0.4776 1.1500
v 0.3570 0.4776 1.2609
v 0.2732 0.4776 1.3549
v 0.1479 0.4776 1.4177
v 0.0000 0.4776 1.4398
v -0.1479 0.4776 1.4177
v -0.2732 0.4776 1.3549
v -0.3570 0.4776 1.2609
v -0.3864 0.4776 1.1500
v -0.3570 0.4776 1.0391
v -0.2732 0.4776 0.9451
v -0.1479 0.4776 0.8823
v 0.0000 0.4776 0.8602
v 0.1479 0.4776 0.8823
v 0.2732 0.4776 0.9451
v 0.3570 0.4776 1.0391
v 0.4000 0.4000 1.1500
v 0.3696 0.4000 1.2648
v 0.2828 0.4000 1.3621
v 0.1531 0.4000 1.4272
v 0.0000 0.4000 1.4500
v -0.1531 0.4000 1.4272
v -0.2828 0.4000 1.3621
v -0.3696 0.4000 1.2648
v -0.4000 0.4000 1.1500
v -0.3696 0.4000 1.0352
v -0.2828 0.4000 0.9379
v -0.1531 0.4000 0.8728
v 0.0000 0.4000 0.8500
v 0.1531 0.4000 0.8728
v 0.2828 0.4000 0.9379
v 0.3696 0.4000 1.0352
v 0.3864 0.3224 1.1500
v 0.3570 0.3224 1.2609
v 0.2732 0.3224 1.3549
v 0.1479 0.3224 1.4177
v 0.0000 0.3224 1.4398
v -0.1479 0.3224 1.4177
v -0.2732 0.3224 1.3549
v -0.3570 0.3224 1.2609
v -0.3864 0.3224 1.1500
v -0.3570 0.3224 1.0391
v -0.2732 0.3224 0.9451
v -0.1479 0.3224 0.8823
v 0.0000 0.3224 0.8602
v 0.1479 0.3224 0.8823
v 0.2732 0.3224 0.9451
v 0.3570 0.3224 1.0391
v 0.3464 0.2500 1.1500
v 0.3200 0.2500 1.2494
v 0.2449 0.2500 1.3337
v 0.1326 0.2500 1.3900
v 0.0000 0.2500 1.4098
v -0.1326 0.2500 1.3900
v -0.2449 0.2500 1.3337
v -0.3200 0.2500 1.2494
v -0.3464 0.2500 1.1500
v -0.3200 0.2500 1.0506
v -0.2449 0.2500 0.9663
v -0.1326 0.2500 0.9100
v 0.0000 0.2500 0.8902
v 0.1326 0.2500 0.9100
v 0.2449 0.2500 0.9663
v 0.3200 0.2500 1.0506
v 0.2828 0.1879 1.1500
v 0.2613 0.1879 1.2312
v 0.2000 0.1879 1.3000
v 0.1082 0.1879 1.3460
v 0.0000 0.1879 1.3621
v -0.1082 0.1879 1.3460
v -0.2000 0.1879 1.3000
v -0.2613 0.1879 1.2312
v -0.2828 0.1879 1.1500
v -0.2613 0.1879 1.0688
v -0.2000 0.1879 1.0000
v -0.1082 0.1879 0.9540
v 0.0000 0.1879 0.9379
v 0.1082 0.1879 0.9540
v 0.2000 0.1879 1.0000
v 0.2613 0.1879 1.0688
v 0.2000 0.1402 1.1500
v 0.1848 0.1402 1.2074
v 0.1414 0.1402 1.2561
v 0.0765 0.1402 1.2886
v 0.0000 0.1402 1.3000
v -0.0765 0.1402 1.2886
v -0.1414 0.1402 1.2561
v -0.1848 0.1402 1.2074
v -0.2000 0.1402 1.1500
v -0.1848 0.1402 1.0926
v -0.1414 0.1402 1.0439
v -0.0765 0.1402 1.0114
v 0.0000 0.1402 1.0000
v 0.0765 0.1402 1.0114
v 0.1414 0.1402 1.0439
v 0.1848 0.1402 1.0926
v 0.1035 0.1102 1.1500
v 0.0956 0.1102 1.1797
v 0.0732 0.1102 1.2049
v 0.0396 0.1102 1.2217
v 0.0000 0.1102 1.2276
v -0.0396 0.1102 1.2217
v -0.0732 0.1102 1.2049
v -0.0956 0.1102 1.1797
v -0.1035 0.1102 1.1500
v -0.0956 0.1102 1.1203
v -0.0732 0.1102 1.0951
v -0.0396 0.1102 1.0783
v 0.0000 0.1102 1.0724
v 0.0396 0.1102 1.0783
v 0.0732 0.1102 1.0951
v 0.0956 0.1102 1.1203
v 0.0000 0.1000 1.1500
v 0.0000 0.1000 1.1500
v 0.0000 0.1000 1.1500
v 0.0000 0.1000 1.1500
v 0.0000 0.1000 1.1500
v 0.0000 0.1000 1.1500
v 0.0000 0.1000 1.1500
v 0.0000 0.1000 1.1500
v 0.0000 0.1000 1.1500
v 0.0000 0.1000 1.1500
v 0.0000 0.1000 1.1500
v 0.0000 0.1000 1.1500
v 0.0000 0.1000 1.1500
v 0.0000 0.1000 1.1500
v 0.0000 0.1000 1.1500
v 0.0000 0.1000 1.1500
f 625 626 642 641
f 626 627 643 642
f 627 628 644 643
f 628 629 645 644
f 629 630 646 645
f 630 631 647 646
f 631 632 648 647
f 632 633 649 648
f 633 634 650 649
f 634 635 651 650
f 635 636 652 651
f 636 637 653 652
f 637 638 654 653
f 638 639 655 654
f 639 640 656 655
f 640 625 641 656
f 641 642 658 657
f 642 643 659 658
f 643 644 660 659
f 644 645 661 660
f 645 646 662 661
f 646 647 663 662
f 647 648 664 663
f 648 649 665 664
f 649 650 666 665
f 650 651 667 666
f 651 652 668 667
f 652 653 669 668
f 653 654 670 669
f 654 655 671 670
f 655 656 672 671
f 656 641 657 672
f 657 658 674 673
f 658 659 675 674
f 659 660 676 675
f 660 661 677 676
f 661 662 678 677
f 662 663 679 678
f 663 664 680 679
f 664 665 681 680
f 665 666 682 681
f 666 667 683 682
f 667 668 684 683
f 668 669 685 684
f 669 670 686 685
f 670 671 687 686
f 671 672 688 687
f 672 657 673 688
f 673 674 690 689
f 674 675 691 690
f 675 676 692 691
f 676 677 693 692
f 677 678 694 693
f 678 679 695 694
f 679 680 696 695
f 680 681 697 696
f 681 682 698 697
f 682 683 699 698
f 683 684 700 699
f 684 685 701 700
f 685 686 702 701
f 686 687 703 702
f 687 688 704 703
f 688 673 689 704
f 689 690 706 705
f 690 691 707 706
f 691 692 708 707
f 692 693 709 708
f 693 694 710 709
f 694 695 711 710
f 695 696 712 711
f 696 697 713 712
f 697 698 714 713
f 698 699 715 714
f 699 700 716 715
f 700 701 717 716
f 701 702 718 717
f 702 703 719 718
f 703 704 720 719
f 704 689 705 720
f 705 706 722 721
f 706 707 723 722
f 707 708 724 723
f 708 709 725 724
f 709 710 726 725
f 710 711 727 726
f 711 712 728 727
f 712 713 729 728
f 713 714 730 729
f 714 715 731 730
f 715 716 732 731
f 716 717 733 732
f 717 718 734 733
f 718 719 735 734
f 719 720 736 735
f 720 705 721 736
f 721 722 738 737
f 722 723 739 738
f 723 724 740 739
f 724 725 741 740
f 725 726 742 741
f 726 727 743 742
f 727 728 744 743
f 728 729 745 744
f 729 730 746 745
f 730 731 747 746
f 731 732 748 747
f 732 733 749 748
f 733 734 750 749
f 734 735 751 750
f 735 736 752 751
f 736 721 737 752
f 737 738 754 753
f 738 739 755 754
f 739 740 756 755
f 740 741 757 756
f 741 742 758 757
f 742 743 759 758
f 743 744 760 759
f 744 745 761 760
f 745 746 762 761
f 746 747 763 762
f 747 748 764 763
f 748 749 765 764
f 749 750 766 765
f 750 751 767 766
f 751 752 768 767
f 752 737 753 768
f 753 754 770 769
f 754 755 771 770
f 755 756 772 771
f 756 757 773 772
f 757 758 774 773
f 758 759 775 774
f 759 760 776 775
f 760 761 777 776
f 761 762 778 777
f 762 763 779 778
f 763 764 780 779
f 764 765 781 780
f 765 766 782 781
f 766 767 783 782
f 767 768 784 783
f 768 753 769 784
f 769 770 786 785
f 770 771 787 786
f 771 772 788 787
f 772 773 789 788
f 773 774 790 789
f 774 775 791 790
f 775 776 792 791
f 776 777 793 792
f 777 778 794 793
f 778 779 795 794
f 779 780 796 795
f 780 781 797 796
f 781 782 798 797
f 782 783 799 798
f 783 784 800 799
f 784 769 785 800
f 785 786 802 801
f 786 787 803 802
f 787 788 804 803
f 788 789 805 804
f 789 790 806 805
f 790 791 807 806
f 791 792 808 807
f 792 793 809 808
f 793 794 810 809
f 794 795 811 810
f 795 796 812 811
f 796 797 813 812
f 797 798 814 813
f 798 799 815 814
f 799 800 816 815
f 800 785 801 816
f 801 802 818 817
f 802 803 819 818
f 803 804 820 819
f 804 805 821 820
f 805 806 822 821
f 806 807 823 822
f 807 808 824 823
f 808 809 825 824
f 809 810 826 825
f 810 811 827 826
f 811 812 828 827
f 812 813 829 828
f 813 814 830 829
f 814 815 831 830
f 815 816 832 831
f 816 801 817 832
